<svg width="30" height="22" viewBox="0 0 30 22" fill="none" xmlns="http://www.w3.org/2000/svg">
<path d="M29.4316 7.27289C29.6602 7.09568 30 7.26146 30 7.54156V19.2317C30 20.7466 28.7402 21.9756 27.1875 21.9756H2.8125C1.25977 21.9756 0 20.7466 0 19.2317V7.54728C0 7.26146 0.333984 7.1014 0.568359 7.27861C1.88086 8.27327 3.62109 9.53661 9.59766 13.7725C10.834 14.6528 12.9199 16.505 15 16.4935C17.0918 16.5107 19.2188 14.6185 20.4082 13.7725C26.3848 9.53661 28.1191 8.26755 29.4316 7.27289ZM15 14.6586C16.3594 14.6814 18.3164 12.9894 19.3008 12.2919C27.0762 6.78699 27.668 6.30681 29.4609 4.93486C29.8008 4.67762 30 4.27746 30 3.85444V2.76832C30 1.25345 28.7402 0.0244141 27.1875 0.0244141H2.8125C1.25977 0.0244141 0 1.25345 0 2.76832V3.85444C0 4.27746 0.199219 4.6719 0.539062 4.93486C2.33203 6.30109 2.92383 6.78699 10.6992 12.2919C11.6836 12.9894 13.6406 14.6814 15 14.6586Z" fill="white"/>
</svg>
