<svg width="280" height="120" viewBox="0 0 280 120" fill="none" xmlns="http://www.w3.org/2000/svg">
<path fill-rule="evenodd" clip-rule="evenodd" d="M100.851 75.4216C94.8844 75.4856 90.1138 75.7109 89.8862 75.9388C89.6303 76.1951 89.8964 76.6687 90.6129 77.233L91.7427 78.123V89.787V101.45L90.681 102.287C90.0973 102.747 89.728 103.298 89.86 103.513C89.9924 103.727 92.9445 103.902 96.4207 103.902C101.756 103.902 102.741 103.803 102.741 103.267C102.741 102.917 102.55 102.632 102.318 102.632C102.085 102.632 101.514 102.25 101.049 101.784C100.275 101.01 100.203 100.372 100.203 94.371V87.8049H102.995C105.606 87.8049 105.879 87.8981 107.224 89.2452C108.015 90.0373 108.663 90.9905 108.663 91.3633C108.663 91.736 108.853 92.0411 109.086 92.0411C109.664 92.0411 109.632 91.6297 108.663 86.534C108.197 84.0884 107.817 82.0398 107.817 81.9809C107.817 81.9221 107.626 81.8742 107.394 81.8742C107.161 81.8742 106.971 82.3537 106.971 82.94C106.971 84.485 104.752 85.4707 102.154 85.0806L100.203 84.7874V82.4643C100.203 80.5627 100.391 79.9526 101.241 79.1016C103.61 76.7285 110.025 78.9715 112.544 83.0535C113.057 83.8855 113.555 84.332 113.65 84.0465C113.845 83.4615 112.081 75.8486 111.674 75.5199C111.53 75.4034 106.659 75.3593 100.851 75.4216ZM206.27 76.0672L203.837 76.9424V79.2621C203.837 81.4171 203.717 81.6958 202.145 83.1938C201.215 84.0804 200.453 84.9086 200.453 85.0344C200.453 85.1602 201.024 85.2631 201.722 85.2631H202.991L202.994 92.5706C202.996 98.966 203.095 100.026 203.779 101.066C204.991 102.907 206.127 103.489 209.006 103.744C213.692 104.159 215.93 102.762 216.731 98.9236L217.018 97.5456L215.748 98.8177C214.42 100.147 212.896 100.441 211.423 99.6514C210.665 99.2447 210.605 98.6999 210.605 92.2071V85.2017L212.979 85.3119C215.303 85.4195 215.365 85.3923 215.94 84.0232C216.263 83.2535 216.528 82.5986 216.528 82.5668C216.529 82.5354 215.196 82.5727 213.567 82.6503L210.605 82.7909V78.9436C210.605 74.4863 210.625 74.4994 206.27 76.0672ZM160.421 81.8318C156.948 82.8273 154.7 84.6874 153.103 87.8879C151.652 90.7948 151.493 92.6587 152.455 95.4842C154.36 101.083 160.551 104.303 168.354 103.753C170.358 103.612 172.283 103.387 172.631 103.253C173.338 102.981 175.736 95.5152 175.258 95.0729C175.093 94.92 174.861 95.0805 174.743 95.43C174.624 95.7795 173.631 96.9707 172.534 98.0776C170.791 99.8382 170.32 100.09 168.775 100.09C167.804 100.09 166.38 99.8263 165.611 99.5044C163.108 98.4572 159.974 94.285 160.953 93.3043C161.164 93.0929 164.38 92.1186 168.099 91.1387C171.819 90.1589 175.021 89.2206 175.215 89.0533C175.727 88.6136 174.376 86.1515 172.612 84.3075C170.839 82.4541 167.377 81.0134 164.8 81.057C163.82 81.0735 161.849 81.4222 160.421 81.8318ZM226.256 81.7335C224.977 82.1216 223.424 82.4355 222.807 82.4312C221.523 82.4223 221.18 83.4056 221.18 87.0928V89.2405L222.203 87.8523C224.072 85.3148 225.715 84.4159 228.481 84.4159C231.838 84.4159 232.601 84.881 232.601 86.9267V88.561L229.638 89.2879C225.175 90.3834 221.065 92.5015 219.975 94.268C218.757 96.2408 218.729 99.698 219.917 101.368C221.967 104.252 227.73 104.692 231.218 102.23C232.225 101.519 233.134 100.937 233.237 100.937C233.341 100.937 233.721 101.509 234.082 102.208L234.738 103.479H238.957C242.337 103.479 243.176 103.358 243.176 102.872C243.176 102.538 242.813 102.149 242.368 102.008C240.69 101.475 240.553 100.797 240.585 93.1908C240.623 84.343 240.318 83.4085 236.995 82.1516C234.07 81.046 229.155 80.8545 226.256 81.7335ZM147.367 82.0407C146.669 82.3584 145.539 83.2133 144.856 83.9406C143.381 85.5101 142.928 85.5965 142.919 84.31C142.906 82.341 142.525 82.2114 137.699 82.535C135.223 82.7011 133.198 82.954 133.199 83.0967C133.201 83.2399 133.772 83.6818 134.468 84.0783L135.735 84.8001V92.8383C135.735 99.5811 135.628 100.984 135.07 101.542C134.704 101.908 134.228 102.208 134.013 102.208C133.796 102.208 133.62 102.494 133.62 102.843C133.62 103.379 134.583 103.479 139.753 103.479C146.289 103.479 147.172 103.155 144.615 101.698L143.349 100.976V94.8713C143.349 89.3955 143.436 88.6546 144.2 87.6829C145.236 86.3633 147.018 85.9155 149.025 86.4705C150.51 86.8809 150.531 86.8687 150.943 85.333C151.827 82.0381 151.747 81.6725 150.117 81.5628C149.302 81.5078 148.065 81.7229 147.367 82.0407ZM183.536 82.1012C179.084 84.1079 177.47 88.7089 180.147 91.7623C181.507 93.3132 182.136 93.6195 186.706 94.9573C188.334 95.4338 190.095 96.1273 190.619 96.498C192.695 97.9692 191.108 100.583 187.799 101.143C184.379 101.722 180.81 99.6501 179.639 96.406C178.869 94.2756 178.455 94.723 178.482 97.654C178.512 100.921 179.007 103.86 179.418 103.205C179.624 102.876 180.219 102.832 181.269 103.069C186.598 104.273 192.233 103.893 195.433 102.115C198.843 100.22 200.085 94.9217 197.819 91.944C196.664 90.4258 193.061 88.7216 189.469 87.9942C187.408 87.577 186.494 86.9064 186.494 85.8117C186.494 84.4591 187.925 83.8656 190.641 84.0914C192.723 84.2642 193.153 84.4752 194.615 86.0451C196.28 87.8328 197.369 88.3517 196.903 87.1347C196.762 86.7661 196.646 85.4508 196.646 84.2117V81.9589L195.06 81.9424C194.188 81.9335 191.57 81.8157 189.244 81.6806C185.906 81.487 184.703 81.5755 183.536 82.1012ZM258.616 82.0508C257.918 82.363 256.794 83.2065 256.119 83.9258C254.767 85.3644 254.174 85.3203 254.174 83.7805C254.174 83.2255 253.982 82.6524 253.747 82.5066C253.218 82.1796 244.444 82.7367 244.448 83.0967C244.449 83.2399 245.024 83.6839 245.726 84.0838L247.001 84.8103L246.886 93.1916C246.774 101.425 246.755 101.58 245.82 101.991C245.297 102.221 244.868 102.65 244.868 102.944C244.868 103.35 246.344 103.479 251.002 103.479C257.537 103.479 258.421 103.155 255.864 101.698L254.597 100.976L254.599 95.1322C254.6 90.1339 254.717 89.096 255.406 87.9654C256.336 86.4374 258.253 85.8833 260.439 86.5107C261.448 86.8009 261.878 86.7717 261.999 86.4048C262.41 85.1509 263.052 82.4605 263.055 81.9801C263.058 81.2718 260.258 81.3167 258.616 82.0508ZM123.256 82.3325C121.86 82.5274 119.909 82.8019 118.92 82.9421C116.98 83.2171 116.62 83.8978 117.969 84.7412C118.763 85.2381 118.815 85.7291 118.815 92.8574C118.815 97.03 118.699 100.746 118.558 101.114C118.417 101.483 117.941 101.784 117.5 101.784C116.982 101.784 116.7 102.083 116.7 102.632C116.7 103.441 116.982 103.479 123.045 103.479C128.823 103.479 129.39 103.412 129.39 102.732C129.39 102.321 128.962 101.797 128.438 101.567C127.496 101.153 127.485 101.048 127.372 91.5115C127.268 82.6761 127.198 81.8784 126.526 81.9259C126.124 81.9542 124.652 82.1373 123.256 82.3325ZM166.223 85.6541C166.918 86.3506 167.459 87.3478 167.459 87.9328C167.459 88.8533 167.156 89.0512 164.816 89.6548C163.362 90.0297 161.744 90.4563 161.22 90.6029C160.358 90.8439 160.268 90.7232 160.268 89.3159C160.268 85.1568 163.65 83.0773 166.223 85.6541ZM232.601 93.9685C232.601 96.4691 231.804 98.547 230.679 98.9795C229.543 99.4158 227.304 99.2756 226.764 98.7342C225.958 97.9277 226.173 95.6503 227.175 94.3748C228.046 93.2662 230.931 91.6467 232.072 91.6268C232.433 91.6204 232.601 92.3651 232.601 93.9685Z" fill="black"/>
<path d="M119.5 66L122.5 58L125.5 66H133.5L127 71L129 79L122.5 74.5L115.5 79L117.5 71L111.5 66H119.5Z" fill="#02FDFC" stroke="black" stroke-width="0.5"/>
<path d="M30.2202 8.90364C31.685 5.89297 31.9828 3.20765 31.0518 1.4043L30.3263 0L31.7421 1.00483C35.7615 3.85918 38.7757 7.09478 39.3278 9.14934C39.9504 11.464 39.4496 13.1102 37.3304 15.7154C35.1067 18.4491 34.726 19.6627 35.6494 21.0738L36.3312 22.1159L34.9057 21.2738C32.3072 19.7386 30.4723 17.59 29.7879 15.2829C28.9072 12.3121 28.963 11.4873 30.2202 8.90364Z" fill="#FE0218"/>
<path d="M24.909 46.4105C35.5102 42.6555 36.9192 40.9005 36.6743 31.7545C36.6011 29.0307 36.6438 26.8024 36.769 26.8028C37.1277 26.8041 40.6001 32.2353 41.6936 34.5059C43.7219 38.7163 44.4291 41.0767 44.6613 44.4106C44.8589 47.248 44.7569 48.1486 44.0598 49.7274C42.8348 52.5009 40.9017 54.4923 37.2432 56.7489C28.5637 62.1031 26.9005 64.0513 26.1932 69.6909C25.9026 72.0086 25.9614 73.3942 26.4381 75.4522C27.1357 78.4649 30.0903 84.6532 31.9502 86.9962C32.6143 87.8329 33.8237 89.5007 34.638 90.702C35.4522 91.9034 36.2826 92.8871 36.4827 92.8875C37.0533 92.8888 36.3693 89.9802 35.0889 86.9577C33.1947 82.4881 32.3868 78.1438 32.9895 75.6737C33.704 72.7469 34.4548 71.4269 36.8431 68.8979C39.5934 65.9859 43.6182 63.393 46.38 62.7546C47.5974 62.4733 48.6887 62.3386 48.8055 62.4551C48.9218 62.572 48.2619 64.1297 47.3385 65.9165C44.9473 70.5441 44.2324 73.24 44.7654 75.6212C45.5936 79.3232 46.259 80.4093 51.0359 85.8541C52.8603 87.9337 55.6673 89.9823 57.4841 90.5597C58.4266 90.8592 58.4481 90.8071 58.2108 88.8072C58.0767 87.6736 57.3576 84.5536 56.6132 81.8742C54.9939 76.0456 54.6725 69.2999 55.8831 66.5439C57.4604 62.9516 64.1455 55.2773 68.9008 51.5994C71.3229 49.7262 76.0918 46.8756 76.0918 47.3014C76.0918 47.4361 75.3317 48.7895 74.4032 50.3095C68.2625 60.3565 67.9656 65.1336 72.836 75.5199C74.443 78.9466 74.9396 81.2553 74.8952 85.0937C74.852 88.8212 74.6532 89.8933 72.9367 95.6419C72.0826 98.5022 71.8568 99.9835 72.0327 101.573L72.2675 103.691L40.3886 103.58L8.51019 103.468L6.79113 101.601C-1.04492 93.087 -2.12441 73.6802 4.52809 60.9051C7.39813 55.3933 13.1027 50.6425 19.707 48.263C20.5906 47.9444 22.9315 47.1112 24.909 46.4105Z" fill="#FE0218"/>
<circle cx="271.5" cy="69.5" r="8" stroke="black"/>
<path d="M271.806 70.9736H269.468V75H268.148V65.0469H271.443C272.564 65.0469 273.426 65.3021 274.027 65.8125C274.633 66.3229 274.937 67.0658 274.937 68.041C274.937 68.6608 274.768 69.2008 274.431 69.6611C274.098 70.1214 273.633 70.4655 273.036 70.6934L275.374 74.918V75H273.966L271.806 70.9736ZM269.468 69.9004H271.484C272.136 69.9004 272.653 69.7318 273.036 69.3945C273.424 69.0573 273.617 68.6061 273.617 68.041C273.617 67.4258 273.433 66.9541 273.063 66.626C272.699 66.2979 272.17 66.1315 271.478 66.127H269.468V69.9004Z" fill="black"/>
<rect x="8" y="115" width="258" height="5" fill="black"/>
</svg>
