<svg width="238" height="76" viewBox="0 0 238 76" fill="none" xmlns="http://www.w3.org/2000/svg">
<path d="M5.928 59.552L2.16512 62.8445L2.38462 63.0954L2.63548 63.3149L5.928 59.552ZM5.928 15.648L2.63547 11.8851L2.51019 11.9947L2.39248 12.1125L5.928 15.648ZM16.808 15.648L13.2725 19.1835L13.3902 19.3013L13.5155 19.4109L16.808 15.648ZM16.808 59.552L13.5155 55.7891L13.3902 55.8987L13.2725 56.0165L16.808 59.552ZM7.08 55C7.46417 55 7.87792 55.07 8.28423 55.228C8.68599 55.3842 8.99766 55.5941 9.22052 55.7891L2.63548 63.3149C3.82582 64.3564 5.36174 65 7.08 65V55ZM9.69088 56.2595C9.88589 56.4823 10.0958 56.794 10.252 57.1958C10.41 57.6021 10.48 58.0158 10.48 58.4H0.48C0.48 60.1183 1.12357 61.6542 2.16512 62.8445L9.69088 56.2595ZM10.48 58.4V16.8H0.48V58.4H10.48ZM10.48 16.8C10.48 17.0998 10.4311 17.5118 10.252 17.9722C10.069 18.4429 9.79179 18.8553 9.46352 19.1835L2.39248 12.1125C1.04778 13.4571 0.48 15.1661 0.48 16.8H10.48ZM9.22053 19.4109C8.99767 19.6059 8.686 19.8158 8.28424 19.972C7.87792 20.13 7.46417 20.2 7.08 20.2V10.2C5.36173 10.2 3.82581 10.8436 2.63547 11.8851L9.22053 19.4109ZM7.08 20.2H15.656V10.2H7.08V20.2ZM15.656 20.2C15.3562 20.2 14.9442 20.1511 14.4838 19.972C14.0131 19.789 13.6007 19.5118 13.2725 19.1835L20.3435 12.1125C18.9989 10.7678 17.2899 10.2 15.656 10.2V20.2ZM13.5155 19.4109C13.184 19.1208 12.8552 18.7133 12.6229 18.1907C12.3926 17.6724 12.32 17.1829 12.32 16.8H22.32C22.32 14.9461 21.5693 13.1703 20.1005 11.8851L13.5155 19.4109ZM12.32 16.8V58.4H22.32V16.8H12.32ZM12.32 58.4C12.32 58.0171 12.3926 57.5276 12.6229 57.0093C12.8552 56.4867 13.184 56.0792 13.5155 55.7891L20.1005 63.3149C21.5693 62.0297 22.32 60.2539 22.32 58.4H12.32ZM13.2725 56.0165C13.6007 55.6882 14.0131 55.411 14.4838 55.228C14.9442 55.0489 15.3562 55 15.656 55V65C17.2899 65 18.9989 64.4322 20.3435 63.0875L13.2725 56.0165ZM15.656 55H7.08V65H15.656V55ZM32.118 59.552L28.3551 62.8445L28.5746 63.0954L28.8255 63.3149L32.118 59.552ZM32.118 15.648L28.8255 11.8851L28.7002 11.9947L28.5825 12.1125L32.118 15.648ZM64.502 19.68L67.7713 15.8969L64.502 19.68ZM69.942 32.672L64.9443 32.8223L64.9446 32.8333L64.945 32.8443L69.942 32.672ZM69.942 42.464L74.9388 42.6437L74.9388 42.6425L69.942 42.464ZM64.63 55.712L67.9121 59.484L67.9157 59.4809L64.63 55.712ZM56.118 48.8L59.6535 52.3355L59.6816 52.3075L59.7092 52.279L56.118 48.8ZM58.23 42.336L53.2418 41.992L53.235 42.0915L53.2321 42.1911L58.23 42.336ZM58.23 32.8L53.2322 32.9492L53.2353 33.0528L53.2427 33.1562L58.23 32.8ZM55.926 26.464L52.4453 30.0535L52.472 30.0794L52.4992 30.105L55.926 26.464ZM43.19 24.416V19.416H38.19V24.416H43.19ZM43.19 50.784H38.19V55.784H43.19V50.784ZM33.27 55C33.6542 55 34.0679 55.07 34.4742 55.228C34.876 55.3842 35.1877 55.5941 35.4105 55.7891L28.8255 63.3149C30.0158 64.3564 31.5517 65 33.27 65V55ZM35.8809 56.2595C36.0759 56.4823 36.2858 56.794 36.442 57.1958C36.6 57.6021 36.67 58.0158 36.67 58.4H26.67C26.67 60.1183 27.3136 61.6542 28.3551 62.8445L35.8809 56.2595ZM36.67 58.4V16.8H26.67V58.4H36.67ZM36.67 16.8C36.67 17.0998 36.6211 17.5118 36.442 17.9722C36.259 18.4429 35.9818 18.8553 35.6535 19.1835L28.5825 12.1125C27.2378 13.4571 26.67 15.1661 26.67 16.8H36.67ZM35.4105 19.4109C35.1877 19.6059 34.876 19.8158 34.4742 19.972C34.0679 20.13 33.6542 20.2 33.27 20.2V10.2C31.5517 10.2 30.0158 10.8436 28.8255 11.8851L35.4105 19.4109ZM33.27 20.2H49.91V10.2H33.27V20.2ZM49.91 20.2C55.4297 20.2 58.9748 21.5118 61.2327 23.4631L67.7713 15.8969C63.1172 11.8749 56.9343 10.2 49.91 10.2V20.2ZM61.2327 23.4631C63.3816 25.3201 64.8047 28.1824 64.9443 32.8223L74.9397 32.5217C74.738 25.8122 72.5344 20.0132 67.7713 15.8969L61.2327 23.4631ZM64.945 32.8443C64.9848 33.9994 65.006 35.5776 65.006 37.6H75.006C75.006 35.5264 74.9845 33.8193 74.939 32.4997L64.945 32.8443ZM65.006 37.6C65.006 39.6239 64.9848 41.1775 64.9452 42.2855L74.9388 42.6425C74.9846 41.3612 75.006 39.6721 75.006 37.6H65.006ZM64.9452 42.2843C64.7638 47.3282 63.3081 50.2311 61.3443 51.9431L67.9157 59.4809C72.6079 55.3902 74.6935 49.4611 74.9388 42.6437L64.9452 42.2843ZM61.3479 51.94C59.307 53.7159 55.8711 55 50.23 55V65C57.2182 65 63.3823 63.4255 67.9121 59.484L61.3479 51.94ZM50.23 55H33.27V65H50.23V55ZM49.91 55.784C53.3907 55.784 57.0111 54.978 59.6535 52.3355L52.5825 45.2645C52.5796 45.2673 52.0613 45.784 49.91 45.784V55.784ZM59.7092 52.279C62.2708 49.6348 63.1255 46.0129 63.2279 42.4809L53.2321 42.1911C53.1638 44.5471 52.6106 45.2345 52.5268 45.321L59.7092 52.279ZM63.2182 42.68C63.3145 41.2823 63.358 39.5558 63.358 37.536H53.358C53.358 39.4416 53.3161 40.915 53.2418 41.992L63.2182 42.68ZM63.358 37.536C63.358 35.519 63.3147 33.8075 63.2173 32.4438L53.2427 33.1562C53.316 34.1819 53.358 35.6276 53.358 37.536H63.358ZM63.2278 32.6508C63.1202 29.0468 62.1235 25.4307 59.3528 22.823L52.4992 30.105C52.6298 30.2279 53.1691 30.8359 53.2322 32.9492L63.2278 32.6508ZM59.4067 22.8745C56.7258 20.2748 53.1388 19.416 49.59 19.416V29.416C51.6732 29.416 52.3102 29.9225 52.4453 30.0535L59.4067 22.8745ZM49.59 19.416H43.19V29.416H49.59V19.416ZM38.19 24.416V50.784H48.19V24.416H38.19ZM43.19 55.784H49.91V45.784H43.19V55.784ZM83.3705 59.552L79.6076 62.8445L79.8271 63.0954L80.078 63.3149L83.3705 59.552ZM83.3705 15.648L80.078 11.8851L79.9527 11.9947L79.835 12.1125L83.3705 15.648ZM115.562 23.968L119.098 27.5035L119.216 27.3858L119.325 27.2605L115.562 23.968ZM93.9945 24.416V19.416H88.9945V24.416H93.9945ZM93.9945 33.056H88.9945V38.056H93.9945V33.056ZM114.154 33.568L110.392 36.8605L110.501 36.9858L110.619 37.1035L114.154 33.568ZM114.154 41.44L117.69 44.9755L117.808 44.8578L117.917 44.7325L114.154 41.44ZM93.9945 41.888V36.888H88.9945V41.888H93.9945ZM93.9945 50.784H88.9945V55.784H93.9945V50.784ZM116.074 51.232L112.539 54.7675L112.539 54.7675L116.074 51.232ZM116.074 59.552L119.61 63.0875L119.728 62.9698L119.837 62.8445L116.074 59.552ZM84.5225 55C84.9067 55 85.3204 55.07 85.7267 55.228C86.1285 55.3842 86.4402 55.5941 86.663 55.7891L80.078 63.3149C81.2683 64.3564 82.8042 65 84.5225 65V55ZM87.1334 56.2595C87.3284 56.4823 87.5383 56.794 87.6945 57.1958C87.8525 57.6021 87.9225 58.0158 87.9225 58.4H77.9225C77.9225 60.1183 78.5661 61.6542 79.6076 62.8445L87.1334 56.2595ZM87.9225 58.4V16.8H77.9225V58.4H87.9225ZM87.9225 16.8C87.9225 17.0998 87.8736 17.5118 87.6945 17.9722C87.5115 18.4429 87.2343 18.8553 86.906 19.1835L79.835 12.1125C78.4903 13.4571 77.9225 15.1661 77.9225 16.8H87.9225ZM86.663 19.4109C86.4402 19.6059 86.1285 19.8158 85.7267 19.972C85.3204 20.13 84.9067 20.2 84.5225 20.2V10.2C82.8042 10.2 81.2683 10.8436 80.078 11.8851L86.663 19.4109ZM84.5225 20.2H114.41V10.2H84.5225V20.2ZM114.41 20.2C114.111 20.2 113.699 20.1511 113.238 19.972C112.768 19.789 112.355 19.5118 112.027 19.1835L119.098 12.1125C117.753 10.7678 116.044 10.2 114.41 10.2V20.2ZM112.027 19.1835C111.699 18.8553 111.422 18.4429 111.238 17.9722C111.059 17.5118 111.01 17.0998 111.01 16.8H121.01C121.01 15.1661 120.443 13.4572 119.098 12.1125L112.027 19.1835ZM111.01 16.8V22.816H121.01V16.8H111.01ZM111.01 22.816C111.01 22.4318 111.08 22.0181 111.238 21.6118C111.395 21.21 111.605 20.8983 111.8 20.6755L119.325 27.2605C120.367 26.0702 121.01 24.5343 121.01 22.816H111.01ZM112.027 20.4324C112.355 20.1042 112.768 19.827 113.238 19.644C113.699 19.4649 114.111 19.416 114.41 19.416V29.416C116.044 29.416 117.753 28.8482 119.098 27.5035L112.027 20.4324ZM114.41 19.416H93.9945V29.416H114.41V19.416ZM88.9945 24.416V33.056H98.9945V24.416H88.9945ZM93.9945 38.056H113.003V28.056H93.9945V38.056ZM113.003 38.056C112.62 38.056 112.13 37.9834 111.612 37.7531C111.089 37.5208 110.682 37.192 110.392 36.8605L117.917 30.2755C116.632 28.8067 114.856 28.056 113.003 28.056V38.056ZM110.619 37.1035C110.291 36.7753 110.014 36.3629 109.83 35.8922C109.651 35.4318 109.602 35.0198 109.602 34.72H119.602C119.602 33.0861 119.035 31.3772 117.69 30.0325L110.619 37.1035ZM109.602 34.72V40.288H119.602V34.72H109.602ZM109.602 40.288C109.602 39.9038 109.672 39.4901 109.83 39.0838C109.987 38.682 110.197 38.3703 110.392 38.1475L117.917 44.7325C118.959 43.5422 119.602 42.0063 119.602 40.288H109.602ZM110.619 37.9045C110.947 37.5762 111.36 37.299 111.83 37.116C112.291 36.9369 112.703 36.888 113.003 36.888V46.888C114.636 46.888 116.345 46.3202 117.69 44.9755L110.619 37.9045ZM113.003 36.888H93.9945V46.888H113.003V36.888ZM88.9945 41.888V50.784H98.9945V41.888H88.9945ZM93.9945 55.784H114.923V45.784H93.9945V55.784ZM114.923 55.784C114.623 55.784 114.211 55.7351 113.75 55.556C113.28 55.373 112.867 55.0958 112.539 54.7675L119.61 47.6965C118.265 46.3518 116.556 45.784 114.923 45.784V55.784ZM112.539 54.7675C112.211 54.4393 111.934 54.0269 111.75 53.5562C111.571 53.0958 111.522 52.6838 111.522 52.384H121.522C121.522 50.7501 120.955 49.0411 119.61 47.6965L112.539 54.7675ZM111.522 52.384V58.4H121.522V52.384H111.522ZM111.522 58.4C111.522 58.0158 111.592 57.6021 111.75 57.1958C111.907 56.794 112.117 56.4823 112.312 56.2595L119.837 62.8445C120.879 61.6542 121.522 60.1183 121.522 58.4H111.522ZM112.539 56.0165C112.867 55.6882 113.28 55.411 113.75 55.228C114.211 55.0489 114.623 55 114.923 55V65C116.556 65 118.265 64.4322 119.61 63.0875L112.539 56.0165ZM114.923 55H84.5225V65H114.923V55ZM125.717 59.616L121.921 62.87L122.172 63.162L122.464 63.4123L125.717 59.616ZM125.397 58.08L120.702 56.3613L120.677 56.4297L120.654 56.4989L125.397 58.08ZM140.438 16.992L145.133 18.7107L145.224 18.4618L145.288 18.2047L140.438 16.992ZM141.27 15.712L144.393 19.6163V19.6163L141.27 15.712ZM154.07 15.712L157.193 11.8077V11.8077L154.07 15.712ZM154.902 16.992L150.051 18.2047L150.114 18.4585L150.204 18.7042L154.902 16.992ZM169.878 58.08L174.758 56.9954L174.687 56.6756L174.575 56.3678L169.878 58.08ZM170.005 58.656H175.005V58.1071L174.886 57.5714L170.005 58.656ZM169.557 59.616L173.093 63.1515L173.093 63.1515L169.557 59.616ZM158.678 58.656L163.35 56.876L163.348 56.8703L158.678 58.656ZM156.182 52.128L160.852 50.3423L159.623 47.128H156.182V52.128ZM139.094 52.128V47.128H135.621L134.408 50.3825L139.094 52.128ZM136.661 58.656L141.334 60.436L141.34 60.4188L141.347 60.4015L136.661 58.656ZM153.622 42.912V47.912H160.684L158.337 41.2507L153.622 42.912ZM147.669 26.016L152.385 24.3547L147.669 10.9675L142.954 24.3547L147.669 26.016ZM141.717 42.912L137.002 41.2507L134.655 47.912H141.717V42.912ZM126.677 55C127.709 55 128.51 55.4244 128.971 55.8197L122.464 63.4123C123.522 64.3196 124.963 65 126.677 65V55ZM129.514 56.362C129.909 56.8232 130.333 57.6242 130.333 58.656H120.333C120.333 60.3705 121.014 61.8114 121.921 62.87L129.514 56.362ZM130.333 58.656C130.333 58.6571 130.334 58.737 130.319 58.8722C130.306 58.9897 130.267 59.2821 130.141 59.6611L120.654 56.4989C120.351 57.4085 120.333 58.2541 120.333 58.656H130.333ZM130.093 59.7987L145.133 18.7107L135.742 15.2733L120.702 56.3613L130.093 59.7987ZM145.288 18.2047C145.223 18.4656 145.108 18.745 144.934 19.0129C144.761 19.2792 144.566 19.4781 144.393 19.6163L138.146 11.8077C136.897 12.8069 135.99 14.1655 135.587 15.7793L145.288 18.2047ZM144.393 19.6163C143.731 20.1463 143.096 20.2 142.934 20.2V10.2C141.405 10.2 139.662 10.5951 138.146 11.8077L144.393 19.6163ZM142.934 20.2H152.406V10.2H142.934V20.2ZM152.406 20.2C152.243 20.2 151.608 20.1463 150.946 19.6163L157.193 11.8077C155.677 10.5951 153.934 10.2 152.406 10.2V20.2ZM150.946 19.6163C150.773 19.4781 150.578 19.2792 150.405 19.0129C150.231 18.745 150.116 18.4656 150.051 18.2047L159.752 15.7793C159.349 14.1656 158.442 12.8069 157.193 11.8077L150.946 19.6163ZM150.204 18.7042L165.18 59.7922L174.575 56.3678L159.599 15.2798L150.204 18.7042ZM164.997 59.1646L165.125 59.7406L174.886 57.5714L174.758 56.9954L164.997 59.1646ZM165.005 58.656C165.005 58.0705 165.139 57.5161 165.363 57.0376C165.577 56.5773 165.838 56.2646 166.022 56.0805L173.093 63.1515C174.093 62.1511 175.005 60.6235 175.005 58.656H165.005ZM166.022 56.0805C166.348 55.7543 166.768 55.4617 167.269 55.2616C167.763 55.0639 168.226 55 168.598 55V65C170.218 65 171.838 64.4065 173.093 63.1515L166.022 56.0805ZM168.598 55H160.725V65H168.598V55ZM160.725 55C160.941 55 161.53 55.0517 162.189 55.4838C162.873 55.9327 163.213 56.5175 163.35 56.876L154.005 60.436C154.483 61.6905 155.336 62.9473 156.702 63.8442C158.043 64.7243 159.486 65 160.725 65V55ZM163.348 56.8703L160.852 50.3423L151.511 53.9137L154.007 60.4417L163.348 56.8703ZM156.182 47.128H139.094V57.128H156.182V47.128ZM134.408 50.3825L131.976 56.9105L141.347 60.4015L143.779 53.8735L134.408 50.3825ZM131.989 56.876C132.142 56.4745 132.506 55.883 133.193 55.4457C133.839 55.0347 134.394 55 134.549 55V65C135.772 65 137.212 64.7412 138.562 63.8823C139.953 62.997 140.84 61.7335 141.334 60.436L131.989 56.876ZM134.549 55H126.677V65H134.549V55ZM158.337 41.2507L152.385 24.3547L142.954 27.6773L148.906 44.5733L158.337 41.2507ZM142.954 24.3547L137.002 41.2507L146.433 44.5733L152.385 27.6773L142.954 24.3547ZM141.717 47.912H153.622V37.912H141.717V47.912Z" fill="#3CB371"/>
<path d="M205 62H217" stroke="#3CB371" stroke-width="5" stroke-linecap="round" stroke-linejoin="round"/>
<path fill-rule="evenodd" clip-rule="evenodd" d="M211 21.5C214.046 21.4981 217.003 22.5264 219.391 24.4176C221.778 26.3089 223.456 28.952 224.152 31.9175C224.847 34.883 224.519 37.9965 223.222 40.7521C221.924 43.5077 219.732 45.7434 217.003 47.096L217 50C217 51.5913 216.368 53.1174 215.243 54.2426C214.118 55.3679 212.591 56 211 56C209.409 56 207.883 55.3679 206.758 54.2426C205.632 53.1174 205 51.5913 205 50V47.096C202.271 45.7436 200.08 43.5081 198.782 40.7528C197.484 37.9975 197.156 34.8843 197.851 31.919C198.546 28.9537 200.224 26.3105 202.611 24.419C204.998 22.5275 207.954 21.4988 211 21.5V21.5Z" stroke="#3CB371" stroke-width="5" stroke-linecap="round" stroke-linejoin="round"/>
<path d="M211 14V11" stroke="#3CB371" stroke-width="5" stroke-linecap="round" stroke-linejoin="round"/>
<path d="M226 20L229 17" stroke="#3CB371" stroke-width="5" stroke-linecap="round" stroke-linejoin="round"/>
<path d="M196 20L193 17" stroke="#3CB371" stroke-width="5" stroke-linecap="round" stroke-linejoin="round"/>
<path d="M226 47L229 50" stroke="#3CB371" stroke-width="5" stroke-linecap="round" stroke-linejoin="round"/>
<path d="M196 47L193 50" stroke="#3CB371" stroke-width="5" stroke-linecap="round" stroke-linejoin="round"/>
<path d="M190 32H187" stroke="#3CB371" stroke-width="5" stroke-linecap="round" stroke-linejoin="round"/>
<path d="M235 32H232" stroke="#3CB371" stroke-width="5" stroke-linecap="round" stroke-linejoin="round"/>
</svg>
