<svg width="256" height="80" viewBox="0 0 256 80" fill="none" xmlns="http://www.w3.org/2000/svg">
<g clip-path="url(#clip0)">
<path d="M255.187 0H0V56.1277H255.187V0Z" fill="#E30815"/>
<path d="M255.187 58.7025H0V80.3294H255.187V58.7025Z" fill="black"/>
<path d="M24.1028 6.48071H10.7451V50.8975H24.1028V6.48071Z" fill="white"/>
<path d="M244.119 17.5328H230.768L226.732 23.8118L222.702 17.5328H209.345L220.056 34.2186L209.345 50.9043H222.702L226.732 44.6186L230.768 50.9043H244.119L233.414 34.2186L244.119 17.5328Z" fill="white"/>
<path d="M59.4751 23.7446C57.8028 19.8992 54.4987 17.5664 48.938 17.5664C45.6338 17.5664 42.4505 19.3815 40.1067 21.1765V18.642H26.749V50.9109H40.1067V29.795C40.6409 29.169 41.2996 28.6615 42.0409 28.305C42.7821 27.9485 43.5896 27.7507 44.4115 27.7244C48.7164 27.7244 48.2731 33.5799 48.2731 33.5799V50.9244H60.2004V27.4488C60.2125 26.1775 59.9657 24.9172 59.4751 23.7446Z" fill="white"/>
<path d="M173.858 23.7446C172.186 19.8992 168.882 17.5664 163.321 17.5664C159.359 17.5664 155.564 20.1815 153.193 22.232C151.353 19.3009 148.237 17.5664 143.456 17.5664C140.151 17.5664 136.961 19.3815 134.624 21.1765V18.642H121.267V50.9109H134.644V29.795C135.179 29.169 135.837 28.6615 136.579 28.305C137.32 27.9485 138.127 27.7507 138.949 27.7244C143.254 27.7244 142.811 33.5799 142.811 33.5799V50.9244H154.731V29.5395C155.256 28.9764 155.887 28.5235 156.588 28.2072C157.289 27.891 158.046 27.7177 158.815 27.6975C163.119 27.6975 162.676 33.553 162.676 33.553V50.8975H174.603V27.4488C174.609 26.1761 174.355 24.9157 173.858 23.7446Z" fill="white"/>
<path d="M105.894 18.6084V39.7378C105.36 40.3638 104.701 40.8713 103.96 41.2278C103.219 41.5843 102.411 41.7821 101.589 41.8084C97.2846 41.8084 97.7278 35.9529 97.7278 35.9529V18.6084H85.8073V42.0571C85.7875 43.3393 86.0321 44.6117 86.5259 45.795C88.1981 49.6403 91.5023 51.9731 97.0629 51.9731C100.367 51.9731 103.557 50.158 105.894 48.363V50.8975H119.252V18.6286L105.894 18.6084Z" fill="white"/>
<path d="M85.0553 26.5278V18.6084H78.7828V9.09583H65.4318V18.6084H60.2002V26.5278H65.4318V42.8841C65.4318 42.8841 66.1437 50.8975 75.5055 50.8975H84.9076V41.3647H81.7243C81.1467 41.3647 78.7828 41.5126 78.7828 36.8202V26.5278H85.0553Z" fill="white"/>
<path d="M199.922 37.526H211.265C211.43 36.6118 211.518 35.6853 211.527 34.7563C211.527 25.5395 203.683 18.0706 194.012 18.0706C184.342 18.0706 176.498 25.5395 176.498 34.7563C176.498 43.9731 184.342 51.4353 194.012 51.4353C197.376 51.4729 200.679 50.5424 203.529 48.7547C206.379 46.967 208.657 44.3973 210.09 41.3512H198.445C197.663 42.2715 196.617 42.929 195.45 43.2348C194.282 43.5407 193.049 43.4801 191.917 43.0613C190.785 42.6425 189.809 41.8857 189.12 40.8932C188.432 39.9008 188.065 38.7207 188.069 37.5126H199.922V37.526ZM194.012 25.089C195.58 25.089 197.083 25.7123 198.191 26.8218C199.3 27.9312 199.922 29.436 199.922 31.005H188.096C188.097 29.4354 188.722 27.9307 189.831 26.8214C190.94 25.7121 192.444 25.089 194.012 25.089Z" fill="white"/>
<path d="M27.0269 73.4746H21.3677L20.0967 77H18.2598L23.418 63.4922H24.9766L30.144 77H28.3164L27.0269 73.4746ZM21.9058 72.0088H26.498L24.1973 65.6909L21.9058 72.0088Z" fill="white"/>
<path d="M84.0269 73.4746H78.3677L77.0967 77H75.2598L80.418 63.4922H81.9766L87.144 77H85.3164L84.0269 73.4746ZM78.9058 72.0088H83.498L81.1973 65.6909L78.9058 72.0088Z" fill="white"/>
<path d="M142.027 73.4746H136.368L135.097 77H133.26L138.418 63.4922H139.977L145.144 77H143.316L142.027 73.4746ZM136.906 72.0088H141.498L139.197 65.6909L136.906 72.0088Z" fill="white"/>
<path d="M115.349 71.7119V77H113.568V63.4922H118.55C120.028 63.4922 121.185 63.8695 122.02 64.624C122.861 65.3786 123.281 66.3774 123.281 67.6206C123.281 68.9318 122.87 69.943 122.047 70.6543C121.231 71.3594 120.059 71.7119 118.531 71.7119H115.349ZM115.349 70.2554H118.55C119.502 70.2554 120.232 70.0327 120.739 69.5874C121.246 69.1359 121.5 68.4865 121.5 67.6392C121.5 66.8351 121.246 66.1919 120.739 65.7095C120.232 65.2271 119.536 64.9766 118.652 64.958H115.349V70.2554Z" fill="white"/>
<path d="M165.504 72.7139C165.337 74.1426 164.808 75.2466 163.917 76.0259C163.033 76.799 161.855 77.1855 160.383 77.1855C158.787 77.1855 157.507 76.6134 156.542 75.4692C155.583 74.325 155.104 72.7943 155.104 70.877V69.5781C155.104 68.3226 155.327 67.2186 155.772 66.2661C156.223 65.3136 156.861 64.5838 157.683 64.0767C158.506 63.5633 159.458 63.3066 160.541 63.3066C161.975 63.3066 163.126 63.7087 163.992 64.5127C164.858 65.3105 165.362 66.4176 165.504 67.834H163.713C163.559 66.7578 163.222 65.9785 162.702 65.4961C162.189 65.0137 161.468 64.7725 160.541 64.7725C159.403 64.7725 158.509 65.193 157.859 66.0342C157.216 66.8753 156.895 68.0721 156.895 69.6245V70.9326C156.895 72.3984 157.201 73.5643 157.813 74.4302C158.425 75.2961 159.282 75.729 160.383 75.729C161.372 75.729 162.13 75.5063 162.656 75.061C163.188 74.6095 163.54 73.8271 163.713 72.7139H165.504Z" fill="white"/>
<path d="M199.018 71.0347H193.349V77H191.568V63.4922H199.936V64.958H193.349V69.5781H199.018V71.0347Z" fill="white"/>
<path d="M238.504 72.7139C238.337 74.1426 237.808 75.2466 236.917 76.0259C236.033 76.799 234.855 77.1855 233.383 77.1855C231.787 77.1855 230.507 76.6134 229.542 75.4692C228.583 74.325 228.104 72.7943 228.104 70.877V69.5781C228.104 68.3226 228.327 67.2186 228.772 66.2661C229.223 65.3136 229.861 64.5838 230.683 64.0767C231.506 63.5633 232.458 63.3066 233.541 63.3066C234.975 63.3066 236.126 63.7087 236.992 64.5127C237.858 65.3105 238.362 66.4176 238.504 67.834H236.713C236.559 66.7578 236.222 65.9785 235.702 65.4961C235.189 65.0137 234.468 64.7725 233.541 64.7725C232.403 64.7725 231.509 65.193 230.859 66.0342C230.216 66.8753 229.895 68.0721 229.895 69.6245V70.9326C229.895 72.3984 230.201 73.5643 230.813 74.4302C231.425 75.2961 232.282 75.729 233.383 75.729C234.372 75.729 235.13 75.5063 235.656 75.061C236.188 74.6095 236.54 73.8271 236.713 72.7139H238.504Z" fill="white"/>
<path d="M44.5479 70.979C43.0202 70.5399 41.9069 70.0018 41.208 69.3647C40.5153 68.7215 40.1689 67.9299 40.1689 66.9897C40.1689 65.9259 40.5926 65.0477 41.4399 64.355C42.2935 63.6561 43.4006 63.3066 44.7612 63.3066C45.689 63.3066 46.5146 63.486 47.2383 63.8447C47.9681 64.2035 48.5309 64.6982 48.9268 65.3291C49.3288 65.96 49.5298 66.6496 49.5298 67.3979H47.7393C47.7393 66.5815 47.4795 65.9414 46.96 65.4775C46.4404 65.0075 45.7075 64.7725 44.7612 64.7725C43.883 64.7725 43.1965 64.9673 42.7017 65.3569C42.2131 65.7404 41.9688 66.2754 41.9688 66.9619C41.9688 67.5124 42.2007 67.9793 42.6646 68.3628C43.1346 68.7401 43.9294 69.0864 45.0488 69.4019C46.1745 69.7173 47.0527 70.0667 47.6836 70.4502C48.3206 70.8275 48.7907 71.2697 49.0938 71.7769C49.403 72.284 49.5576 72.8809 49.5576 73.5674C49.5576 74.6621 49.1309 75.5404 48.2773 76.2021C47.4238 76.8577 46.2827 77.1855 44.854 77.1855C43.9263 77.1855 43.0604 77.0093 42.2563 76.6567C41.4523 76.298 40.8307 75.8094 40.3916 75.1909C39.9587 74.5724 39.7422 73.8704 39.7422 73.085H41.5327C41.5327 73.9014 41.8327 74.5477 42.4326 75.0239C43.0387 75.494 43.8459 75.729 44.854 75.729C45.7941 75.729 46.5146 75.5373 47.0156 75.1538C47.5166 74.7703 47.7671 74.2477 47.7671 73.5859C47.7671 72.9242 47.5352 72.4139 47.0713 72.0552C46.6074 71.6903 45.7663 71.3315 44.5479 70.979Z" fill="white"/>
<path d="M62.479 77H60.6978V63.4922H62.479V77Z" fill="white"/>
<path d="M178.479 77H176.698V63.4922H178.479V77Z" fill="white"/>
<path d="M214.479 77H212.698V63.4922H214.479V77Z" fill="white"/>
<path d="M238.538 4.82019H239.022H239.075C239.631 4.84004 240.181 4.94198 240.707 5.12271C241.541 5.39195 242.305 5.83919 242.949 6.4335C243.593 7.02781 244.099 7.75499 244.435 8.56472C244.687 9.13769 244.841 9.74899 244.891 10.3731C244.891 10.4874 244.891 10.6084 244.891 10.7227V11.2067C244.887 11.2245 244.887 11.2428 244.891 11.2605C244.891 11.395 244.891 11.5227 244.858 11.6572C244.8 12.1968 244.668 12.726 244.468 13.2303C244.056 14.2673 243.371 15.1729 242.485 15.8502C241.599 16.5275 240.546 16.9511 239.438 17.0757C238.832 17.1497 238.218 17.1293 237.618 17.0152C236.287 16.7634 235.077 16.0796 234.174 15.0698C233.27 14.0599 232.725 12.7801 232.622 11.4286C232.555 10.6551 232.641 9.87596 232.877 9.13616C233.162 8.22067 233.656 7.38433 234.321 6.6935C234.985 6.00267 235.802 5.47636 236.705 5.15632C237.175 4.98767 237.665 4.88144 238.162 4.84036L238.538 4.82019ZM233.877 10.9714C233.877 11.9421 234.165 12.8909 234.704 13.6979C235.242 14.505 236.008 15.134 236.904 15.5054C237.8 15.8769 238.785 15.9741 239.736 15.7847C240.687 15.5954 241.561 15.128 242.246 14.4416C242.932 13.7553 243.399 12.8808 243.588 11.9289C243.777 10.9769 243.68 9.99014 243.309 9.0934C242.938 8.19666 242.31 7.4302 241.504 6.89095C240.697 6.3517 239.749 6.06388 238.78 6.06388C238.136 6.063 237.498 6.18933 236.903 6.43564C236.308 6.68196 235.767 7.04342 235.311 7.49931C234.856 7.95519 234.495 8.49654 234.249 9.09235C234.003 9.68817 233.876 10.3267 233.877 10.9714Z" fill="white"/>
<path d="M237.739 14.0572H236.053V7.61012H238.74C239.163 7.60525 239.585 7.66881 239.989 7.79836C240.244 7.87884 240.475 8.02215 240.66 8.21516C240.86 8.43564 240.987 8.71282 241.023 9.00844C241.078 9.3307 241.062 9.66113 240.976 9.97651C240.917 10.1789 240.816 10.3661 240.678 10.5251C240.54 10.6841 240.369 10.8112 240.177 10.8975L239.834 11.0387L239.948 11.079C240.225 11.2003 240.459 11.4016 240.62 11.6572C240.787 11.9149 240.935 12.1845 241.063 12.4639L241.822 13.99C241.82 14.01 241.82 14.0304 241.822 14.0505H240.116C240.098 14.053 240.079 14.0491 240.063 14.0393C240.047 14.0294 240.035 14.0144 240.029 13.9967L239.23 12.3698C239.159 12.2417 239.081 12.1182 238.995 12C238.919 11.891 238.818 11.8009 238.702 11.7368C238.586 11.6727 238.456 11.6362 238.323 11.6303C238.095 11.6303 237.873 11.6303 237.652 11.6303L237.739 14.0572ZM237.739 8.82021V10.474C238.014 10.474 238.296 10.474 238.572 10.474C238.676 10.4649 238.779 10.4492 238.881 10.4269C238.997 10.3986 239.105 10.3394 239.191 10.2554C239.277 10.1715 239.339 10.0658 239.371 9.94962C239.394 9.79588 239.394 9.63948 239.371 9.48575C239.358 9.37068 239.324 9.25901 239.27 9.15634C239.216 9.07268 239.144 9.00213 239.059 8.94981C238.974 8.89749 238.879 8.8647 238.78 8.85383C238.436 8.82058 238.091 8.80935 237.746 8.82021H237.739Z" fill="white"/>
</g>
<defs>
<clipPath id="clip0">
<rect width="255.2" height="80" fill="white"/>
</clipPath>
</defs>
</svg>
