<svg width="189" height="120" viewBox="0 0 189 120" fill="none" xmlns="http://www.w3.org/2000/svg">
<g clip-path="url(#clip0)">
<path fill-rule="evenodd" clip-rule="evenodd" d="M164.429 29.6372H188.562L186.19 42.5903H176.392L174.122 54.8178H182.889L180.723 67.0462H171.956L162.571 120H148.238L164.429 29.6372ZM159.272 29.6372H144.628L135.757 77.2018C135.14 80.4151 134.623 82.486 134.212 83.4185C133.695 84.2481 133.076 84.6618 132.148 84.6618C131.324 84.6618 130.808 84.2481 130.703 83.5225C130.601 82.6929 130.808 80.9308 131.323 78.0294L140.398 29.6362H125.649L118.532 67.8738C117.192 75.1279 116.367 79.8954 116.161 82.1742C116.059 84.455 116.367 86.6308 117.297 88.7027C118.121 90.7766 119.771 92.4337 122.142 93.678C124.515 95.0243 127.3 95.647 130.702 95.647C133.796 95.647 136.478 95.1283 138.953 93.9889C141.429 92.9524 143.491 91.2943 145.245 89.2204C146.998 87.1485 148.237 85.0756 148.855 83.1057C149.577 81.1387 150.299 77.7185 151.226 72.7432L159.272 29.6372ZM99.3527 71.1931C99.9704 63.835 100.898 54.9227 102.24 44.1455C98.4246 56.4769 95.8454 65.3881 94.5045 71.1931H99.3527ZM114.306 29.6372L109.768 94.2997H96.2582L97.7025 82.591H92.546L89.4515 94.2997H74.8076L95.4336 29.6372H114.306ZM83.7798 29.6372H71.4038L66.0404 58.7567L63.1528 29.6372H50.8803L38.8137 94.2997H51.1897L56.6555 64.8714L58.8209 94.2997H71.7121L83.7798 29.6372ZM44.2805 30.1559L32.1105 59.3783L35.1015 94.2997H21.5906L19.1158 71.1931L14.7849 94.2997H0.654297L15.4026 0H29.5312L22.3117 51.6065L31.2849 30.1559H44.2805Z" fill="#00ACEC"/>
</g>
<defs>
<clipPath id="clip0">
<rect width="187.5" height="120" fill="white" transform="translate(0.654297)"/>
</clipPath>
</defs>
</svg>
