<svg width="54" height="57" viewBox="0 0 54 57" fill="none" xmlns="http://www.w3.org/2000/svg">
<path d="M21 54H33" stroke="#3CB371" stroke-width="5" stroke-linecap="round" stroke-linejoin="round"/>
<path fill-rule="evenodd" clip-rule="evenodd" d="M27.0002 13.5C30.0461 13.4981 33.0031 14.5264 35.3908 16.4176C37.7784 18.3089 39.4563 20.952 40.1518 23.9175C40.8473 26.883 40.5195 29.9965 39.2217 32.7521C37.9239 35.5077 35.7323 37.7434 33.0032 39.096L33.0002 42C33.0002 43.5913 32.368 45.1174 31.2428 46.2426C30.1176 47.3679 28.5915 48 27.0002 48C25.4089 48 23.8827 47.3679 22.7575 46.2426C21.6323 45.1174 21.0002 43.5913 21.0002 42V39.096C18.2712 37.7436 16.0798 35.5081 14.782 32.7528C13.4841 29.9975 13.1561 26.8843 13.8512 23.919C14.5463 20.9537 16.2236 18.3105 18.6108 16.419C20.9979 14.5275 23.9545 13.4988 27.0002 13.5V13.5Z" stroke="#3CB371" stroke-width="5" stroke-linecap="round" stroke-linejoin="round"/>
<path d="M27 6V3" stroke="#3CB371" stroke-width="5" stroke-linecap="round" stroke-linejoin="round"/>
<path d="M42 12L45 9" stroke="#3CB371" stroke-width="5" stroke-linecap="round" stroke-linejoin="round"/>
<path d="M12 12L9 9" stroke="#3CB371" stroke-width="5" stroke-linecap="round" stroke-linejoin="round"/>
<path d="M42 39L45 42" stroke="#3CB371" stroke-width="5" stroke-linecap="round" stroke-linejoin="round"/>
<path d="M12 39L9 42" stroke="#3CB371" stroke-width="5" stroke-linecap="round" stroke-linejoin="round"/>
<path d="M6 24H3" stroke="#3CB371" stroke-width="5" stroke-linecap="round" stroke-linejoin="round"/>
<path d="M51 24H48" stroke="#3CB371" stroke-width="5" stroke-linecap="round" stroke-linejoin="round"/>
</svg>
