<svg width="166" height="121" viewBox="0 0 166 121" fill="none" xmlns="http://www.w3.org/2000/svg">
<path d="M55.5 1L0.5 23.5V79L55.5 56.5V67.5L99.5 45.5V56L133 34V1L99.5 23V1L55.5 23V1Z" fill="#02FF04" stroke="black"/>
<path fill-rule="evenodd" clip-rule="evenodd" d="M53.3268 1.65358C52.5173 1.99333 40.3304 6.9134 26.2442 12.5868C12.1585 18.2601 0.534657 23.0008 0.413978 23.1218C0.098053 23.4389 0.0548834 78.3776 0.370481 78.5731C0.515688 78.6629 12.7782 73.8632 27.6204 67.9072C42.4627 61.9508 54.7599 57.0776 54.9476 57.0776C55.1706 57.0776 55.289 58.898 55.289 62.3247C55.289 65.6146 55.4113 67.5717 55.617 67.5717C55.7976 67.5717 65.6573 62.7018 77.528 56.7497C89.3987 50.7976 99.1849 45.9277 99.2755 45.9277C99.3661 45.9277 99.4399 48.2889 99.4399 51.1747C99.4399 54.5325 99.5603 56.4218 99.7745 56.4218C99.9583 56.4218 107.538 51.4548 116.617 45.384L133.125 34.3459V17.6731C133.125 6.69303 133.013 1 132.796 1C132.615 1 125.192 5.864 116.302 11.8089L100.138 22.6181L99.9413 20.9092C99.8334 19.9697 99.7866 15.1053 99.8376 10.1003C99.8887 5.09498 99.8112 0.999672 99.6656 1C99.5198 1 89.6594 5.87941 77.7537 11.8433L56.1066 22.6866L56.0206 11.8433C55.9235 -0.379969 56.1478 0.469394 53.3268 1.65358ZM54.962 2.47573C54.962 2.8381 54.596 2.9637 53.572 2.95288L52.1821 2.93812L53.1632 2.48753C54.4724 1.88642 54.962 1.88314 54.962 2.47573ZM99.1129 2.47573C99.1129 2.81449 98.782 2.96403 98.05 2.95616L96.9871 2.94435L97.8047 2.47573C98.8581 1.87199 99.1129 1.87199 99.1129 2.47573ZM132.471 2.47573C132.471 2.79645 132.159 2.9637 131.572 2.95616L130.673 2.94435L131.49 2.47573C132.514 1.88904 132.471 1.88904 132.471 2.47573ZM54.962 9.69826V15.4447L49.3205 15.3552L43.679 15.2654L43.5884 10.8149L43.4978 6.36476L46.3682 5.18943C48.8655 4.16724 49.6109 4.01048 52.1003 3.98294L54.962 3.95145V9.69826ZM99.1129 9.69039V15.4293H95.8425H92.572V10.2417V5.05431L93.6349 4.52371C94.2792 4.20233 95.5671 3.98523 96.9054 3.97244L99.1129 3.95145V9.69039ZM132.471 9.69039V15.4293H131H129.528V9.69039V3.95145H131H132.471V9.69039ZM128.547 10.0183V15.4293H122.807H117.066L117.165 13.7237L117.264 12.0181L122.66 8.34289C125.628 6.32147 128.167 4.6539 128.302 4.6375C128.437 4.62078 128.547 7.04228 128.547 10.0183ZM91.9179 10.5102V15.4293H86.1947H80.4714V13.3174V11.2051L85.9494 8.41176C88.9621 6.87569 91.5376 5.61247 91.6727 5.60492C91.8077 5.59738 91.9179 7.80474 91.9179 10.5102ZM42.7894 11.0841L42.6978 15.2654L37.0563 15.3552L31.4148 15.4447V13.3394V11.2337L36.7293 9.08371C39.6524 7.90116 42.2321 6.92685 42.4623 6.91832C42.7858 6.90652 42.86 7.85164 42.7894 11.0841ZM30.4337 13.6257V15.4293H25.964C23.5059 15.4293 21.574 15.3496 21.6715 15.2519C21.9289 14.9938 29.5415 11.901 30.0249 11.8581C30.3068 11.8331 30.4337 12.3821 30.4337 13.6257ZM79.4903 13.6257V15.4293H76.0017C74.0833 15.4293 72.5769 15.3657 72.6544 15.2877C72.9062 15.0355 78.9919 11.8459 79.245 11.8338C79.3801 11.8272 79.4903 12.6337 79.4903 13.6257ZM116.446 14.1176V15.4293H114.429C113.32 15.4293 112.49 15.3523 112.584 15.2578C113.036 14.8046 115.983 12.8058 116.2 12.8058C116.335 12.8058 116.446 13.3961 116.446 14.1176ZM30.4337 21.8242V27.5631H24.7104H18.9871V22.0429C18.9871 19.0065 19.0852 16.424 19.2053 16.3039C19.325 16.1836 21.9004 16.0852 24.9285 16.0852H30.4337V21.8242ZM42.7874 21.9061L42.8767 27.5631H37.1459H31.4148V21.8163V16.0698L37.0563 16.1593L42.6978 16.2492L42.7874 21.9061ZM54.962 21.8242V27.5631H49.2387H43.5154V21.8242V16.0852H49.2387H54.962V21.8242ZM79.4903 21.8242V27.5631H73.767H68.0437V22.4879V17.4127L69.2701 16.7634C70.3154 16.2102 71.1611 16.1121 74.9934 16.0996L79.4903 16.0852V21.8242ZM91.9179 21.8242V27.5631H86.1947H80.4714V21.8242V16.0852H86.1947H91.9179V21.8242ZM99.1129 19.6732C99.1129 21.733 99.2535 23.3484 99.4429 23.4658C99.6244 23.5783 100.433 23.2238 101.238 22.6784C104.223 20.6587 104.019 20.5413 104.019 24.2722V27.5631H98.2953H92.572V21.8242V16.0852H95.8425H99.1129V19.6732ZM116.446 21.8242V27.5631H110.723H105L105.008 23.8738L105.015 20.1845L108.033 18.1565L111.05 16.1285L113.748 16.1069L116.446 16.0852V21.8242ZM128.547 21.8242V27.5631H122.824H117.1V21.8242V16.0852H122.824H128.547V21.8242ZM132.471 21.8242V27.5631H131H129.528V21.8242V16.0852H131H132.471V21.8242ZM18.333 22.1521V27.5631H12.6098H6.88651V24.3434V21.124L12.201 18.9635C15.1241 17.7754 17.6996 16.7893 17.9242 16.7722C18.2359 16.7483 18.333 18.0253 18.333 22.1521ZM67.3896 22.644V27.5631H61.6664H55.9431V25.5112V23.4593L61.5846 20.6141C64.6876 19.0491 67.2631 17.759 67.3079 17.7469C67.3527 17.7347 67.3896 19.9385 67.3896 22.644ZM5.90537 24.6116V27.5631H3.45254H0.999713V25.4689V23.3743L3.20726 22.5355C4.42125 22.074 5.52502 21.6884 5.66009 21.6782C5.79516 21.6684 5.90537 22.9883 5.90537 24.6116ZM5.90537 34.2858V40.0248H3.45254H0.999713V34.2858V28.5469H3.45254H5.90537V34.2858ZM18.2591 34.2039L18.1695 39.8608L12.528 39.9507L6.88651 40.0402V34.2937V28.5469H12.6176H18.3484L18.2591 34.2039ZM30.4337 34.2937V40.0402L24.7922 39.9507L19.1507 39.8608L19.061 34.2039L18.9718 28.5469H24.7026H30.4337V34.2937ZM42.7874 34.2039L42.6978 39.8608L37.0563 39.9507L31.4148 40.0402V34.2937V28.5469H37.1459H42.8767L42.7874 34.2039ZM54.962 34.2937V40.0402L49.3205 39.9507L43.679 39.8608L43.5893 34.2039L43.5001 28.5469H49.2309H54.962V34.2937ZM67.3896 34.2858V40.0248H61.6664H55.9431V34.2858V28.5469H61.6664H67.3896V34.2858ZM79.4903 34.2937V40.0402L73.8488 39.9507L68.2073 39.8608L68.1176 34.2039L68.0284 28.5469H73.7592H79.4903V34.2937ZM91.9179 34.2858V40.0248H86.1947H80.4714V34.2858V28.5469H86.1947H91.9179V34.2858ZM104.019 34.2937V40.0402L98.3771 39.9507L92.7356 39.8608L92.6459 34.2039L92.5567 28.5469H98.2875H104.019V34.2937ZM116.372 34.2039L116.283 39.8608L110.641 39.9507L105 40.0402V34.2937V28.5469H110.731H116.462L116.372 34.2039ZM128.547 32.6048V36.6628L125.993 38.3438L123.44 40.0248H120.27H117.1V34.2858V28.5469H122.824H128.547V32.6048ZM132.471 31.2908V34.0346L131.17 34.8981C130.455 35.373 129.792 35.7616 129.698 35.7616C129.605 35.7616 129.528 34.1383 129.528 32.1542V28.5469H131H132.471V31.2908ZM5.90537 46.4196V52.1585H3.45254H0.999713V46.4196V40.6807H3.45254H5.90537V46.4196ZM18.333 46.4196V52.1585H12.6098H6.88651V46.4196V40.6807H12.6098H18.333V46.4196ZM30.4337 46.4196V52.1585H24.7104H18.9871V46.4196V40.6807H24.7104H30.4337V46.4196ZM42.8613 46.4196V52.1585H37.1381H31.4148V46.4196V40.6807H37.1381H42.8613V46.4196ZM54.962 46.4196V52.1585H49.2387H43.5154V46.4196V40.6807H49.2387H54.962V46.4196ZM67.3896 46.4196V52.1585H61.6664H55.9431V46.4196V40.6807H61.6664H67.3896V46.4196ZM79.4903 46.4196V52.1585H73.767H68.0437V46.4196V40.6807H73.767H79.4903V46.4196ZM91.9179 44.7051V48.7296L88.4801 50.4441C85.3221 52.0188 84.8561 52.1585 82.7568 52.1585H80.4714V46.4196V40.6807H86.1947H91.9179V44.7051ZM104.019 46.4196V52.1585H102.056H100.094V48.5512C100.094 46.3219 99.9668 44.9439 99.7611 44.9439C99.578 44.9439 97.9617 45.6817 96.1695 46.5836C94.3773 47.4854 92.8346 48.2233 92.7414 48.2233C92.6482 48.2233 92.572 46.5262 92.572 44.452V40.6807H98.2953H104.019V46.4196ZM116.38 42.7303L116.283 44.7799L110.886 48.4512C107.919 50.4703 105.38 52.1307 105.245 52.1405C105.11 52.1504 105 49.576 105 46.4196V40.6807H110.739H116.477L116.38 42.7303ZM122.306 40.7954C122.231 40.8584 121.029 41.6747 119.635 42.609L117.1 44.308V42.4942V40.6807H119.771C121.24 40.6807 122.381 40.7322 122.306 40.7954ZM5.90537 58.8813V64.6202H3.45254H0.999713V58.8813V53.1424H3.45254H5.90537V58.8813ZM18.2591 58.7993L18.1695 64.4563L12.528 64.5461L6.88651 64.6357V58.8892V53.1424H12.6176H18.3484L18.2591 58.7993ZM30.4337 58.8892V64.6357L24.7922 64.5461L19.1507 64.4563L19.061 58.7993L18.9718 53.1424H24.7026H30.4337V58.8892ZM42.7897 57.1098L42.6978 61.0772L38.2945 62.8487C35.6746 63.9027 33.3898 64.6202 32.653 64.6202H31.4148V58.8813V53.1424H37.1482H42.8816L42.7897 57.1098ZM54.8982 54.6817L54.7985 56.2207L49.2518 58.453C46.2011 59.6805 43.6623 60.685 43.6103 60.685C43.5579 60.685 43.5154 58.9879 43.5154 56.9137V53.1424H49.2567H54.9979L54.8982 54.6817ZM67.3896 57.075V61.0073L63.7977 62.814C60.5433 64.4504 60.0053 64.6202 58.0744 64.6202H55.9431V58.8813V53.1424H61.6664H67.3896V57.075ZM79.4903 54.0485C79.4903 54.8945 79.1102 55.1451 73.767 57.8188L68.0437 60.6827V56.9124V53.1424H73.767H79.4903V54.0485ZM82.7336 53.2647C82.6587 53.3319 82.119 53.6307 81.5343 53.9291C80.507 54.4528 80.4714 54.4485 80.4714 53.8068C80.4714 53.2604 80.6843 53.1424 81.6707 53.1424C82.33 53.1424 82.8085 53.1975 82.7336 53.2647ZM102.147 54.2901C101.212 54.9214 100.367 55.4379 100.27 55.4379C100.174 55.4379 100.094 54.9214 100.094 54.2901V53.1424H101.97H103.846L102.147 54.2901ZM5.90537 70.6212V75.9663L4.81926 76.3601C4.22175 76.5769 3.11798 76.754 2.36643 76.754H0.999713V71.0151V65.2761H3.45254H5.90537V70.6212ZM18.1695 68.2072V70.9747L12.6229 73.2083C9.57219 74.4371 7.03335 75.4422 6.98135 75.4422C6.92902 75.4422 6.88651 73.1513 6.88651 70.3513V65.2607L12.528 65.3502L18.1695 65.4401V68.2072ZM30.3555 65.6752C30.2574 65.97 19.6693 70.5232 19.082 70.5232C18.8808 70.5232 18.9989 65.7015 19.2053 65.4949C19.325 65.3745 21.9129 65.2761 24.9557 65.2761C29.1575 65.2761 30.4562 65.3722 30.3555 65.6752ZM57.5783 65.932C56.1207 66.7322 55.9431 66.7322 55.9431 65.932C55.9431 65.3768 56.1567 65.2781 57.333 65.2899L58.723 65.3037L57.5783 65.932Z" fill="black"/>
<path d="M2.31226 94.2613C1.59015 94.1456 0.999509 93.9223 0.999509 93.7648C0.999509 93.6074 2.81755 93.4789 5.03948 93.4789H9.07946L13.6002 103.563C16.0867 109.109 18.2387 113.784 18.3829 113.951C18.5271 114.119 18.9892 113.457 19.4131 112.475C19.8356 111.497 21.8626 106.822 23.9171 102.087L27.6529 93.4789H31.6596C35.5651 93.4789 36.8458 93.8399 34.5032 94.2804C33.8638 94.4007 33.0544 94.786 32.7045 95.1369C32.0994 95.7436 32.0687 96.3192 32.0687 107.026C32.0687 117.818 32.0955 118.308 32.7215 118.981C33.0806 119.368 33.89 119.781 34.5202 119.899C37.0921 120.383 35.3529 120.698 30.1064 120.698C24.8947 120.698 23.1195 120.383 25.6465 119.908C26.2512 119.794 27.024 119.394 27.3635 119.018C27.9365 118.383 27.9875 117.591 28.0758 107.959C28.1399 100.988 28.0631 97.6922 27.8416 97.9143C27.5545 98.2022 21.1843 112.207 18.4849 118.484C17.9616 119.702 17.4125 120.698 17.2654 120.698C17.1179 120.698 16.5845 119.776 16.0798 118.648C12.1658 109.904 7.39485 99.6418 7.01614 99.1535C6.62074 98.6429 6.56907 99.9252 6.64036 108.512L6.72278 118.461L7.49787 119.09C7.92401 119.436 8.84399 119.81 9.5419 119.922C12.2266 120.353 10.6084 120.698 5.90517 120.698C1.17251 120.698 -0.413649 120.353 2.31226 119.915C3.03438 119.8 3.9174 119.412 4.27453 119.054C4.89755 118.429 4.92404 117.938 4.92404 107.088C4.92404 96.2385 4.89755 95.7479 4.27453 95.1232C3.9174 94.7651 3.03438 94.3771 2.31226 94.2613Z" fill="black"/>
<path d="M38.1596 94.2417C37.5078 94.1357 36.9743 93.9206 36.9743 93.7639C36.9743 93.6071 41.831 93.4789 47.7668 93.4789H58.5592V96.2664C58.5592 99.4638 58.1403 99.8619 57.0876 97.6654C55.9815 95.3573 55.418 95.1379 50.3527 95.0402C46.9655 94.9749 45.778 95.0619 45.3653 95.4045C44.9052 95.7869 44.8234 96.591 44.8234 100.734V105.613L48.6662 105.612C53.4234 105.612 54.5526 105.178 55.2787 103.071C55.5429 102.305 55.8742 101.677 56.0145 101.677C56.1551 101.677 56.2699 103.817 56.2699 106.432C56.2699 109.048 56.146 111.188 55.9946 111.188C55.8432 111.188 55.541 110.59 55.3228 109.86C54.671 107.679 53.615 107.255 48.8297 107.254L44.8234 107.252V113.001C44.8234 118.169 44.8813 118.775 45.3957 118.986C45.7107 119.116 47.8813 119.218 50.2196 119.214C53.6693 119.207 54.7021 119.092 55.6957 118.603C57.1222 117.902 58.8163 116.078 59.2801 114.744C59.6009 113.822 60.5281 113.429 60.5146 114.221C60.5107 114.447 60.1614 115.959 59.7382 117.582L58.9687 120.534L47.9715 120.62C40.7053 120.677 36.9743 120.594 36.9743 120.374C36.9743 120.192 37.2759 120.042 37.6448 120.042C38.571 120.042 40.1235 119.193 40.3687 118.551C40.4803 118.26 40.5718 112.964 40.5718 106.784C40.5718 94.1872 40.6605 94.6486 38.1596 94.2417Z" fill="black"/>
<path d="M63.4695 94.2613C62.7474 94.1456 62.1567 93.9223 62.1567 93.7648C62.1567 93.6074 64.8794 93.4789 68.207 93.4789C73.9355 93.4789 75.8514 93.7953 72.9446 94.2613C72.2225 94.3771 71.3395 94.7651 70.9823 95.1232C70.3593 95.7479 70.3328 96.2385 70.3328 107.088C70.3328 117.938 70.3593 118.429 70.9823 119.054C71.3395 119.412 72.2225 119.8 72.9446 119.915C75.8514 120.381 73.9355 120.698 68.207 120.698C62.4785 120.698 60.5627 120.381 63.4695 119.915C64.1916 119.8 65.0746 119.412 65.4318 119.054C66.0548 118.429 66.0813 117.938 66.0813 107.088C66.0813 96.2385 66.0548 95.7479 65.4318 95.1232C65.0746 94.7651 64.1916 94.3771 63.4695 94.2613Z" fill="black"/>
<path d="M76.9767 94.3771C76.2007 94.1692 75.5655 93.8819 75.5655 93.7389C75.5655 93.5959 78.0674 93.4789 81.1253 93.4789C86.3603 93.4789 88.1116 93.7934 85.5544 94.2745C84.9085 94.3961 84.1377 94.852 83.7557 95.339C83.1137 96.1575 83.0875 96.6114 83.0875 106.961V117.731L83.9725 118.313C84.693 118.786 85.5309 118.889 88.4694 118.867C93.9359 118.825 96.0408 117.947 97.4873 115.104C98.1241 113.852 98.6898 113.278 98.9897 113.579C99.078 113.667 98.7454 115.305 98.2509 117.219L97.3519 120.698H86.4587C76.441 120.698 73.668 120.472 76.6961 119.902C77.342 119.781 78.1129 119.325 78.4949 118.838C79.1369 118.019 79.163 117.565 79.163 107.223C79.163 99.6281 79.0489 96.2103 78.7755 95.6085C78.5014 95.0054 77.9749 94.645 76.9767 94.3771Z" fill="black"/>
<path d="M101.848 94.2686C101.243 94.1548 100.748 93.9305 100.748 93.7704C100.748 93.6101 103.25 93.4789 106.308 93.4789C111.601 93.4789 113.389 93.8068 110.565 94.2597C108.241 94.6323 108.219 94.7447 108.333 105.501L108.433 114.959L109.322 116.474C110.574 118.61 111.95 119.224 115.465 119.215C118.999 119.206 120.575 118.466 121.91 116.189L122.823 114.631L122.923 105.221C123.02 96.1145 123.002 95.7895 122.356 95.1415C121.988 94.7733 121.097 94.3771 120.375 94.2613C117.679 93.8291 119.213 93.4789 123.805 93.4789C128.377 93.4789 129.932 93.8288 127.262 94.2568C126.426 94.3909 125.741 94.7647 125.3 95.3268C124.653 96.1519 124.622 96.5855 124.622 104.943C124.622 111.933 124.521 113.99 124.122 115.165C122.937 118.654 119.851 120.703 115.393 120.963C110.43 121.25 107.223 119.883 105.49 116.739L104.509 114.959L104.345 105.4C104.163 94.7428 104.154 94.7024 101.848 94.2686Z" fill="black"/>
<path d="M131.253 94.2633C130.664 94.1525 130.182 93.9305 130.182 93.7704C130.182 93.6101 132.905 93.4789 136.232 93.4789C141.941 93.4789 143.878 93.7953 140.996 94.2571C139.392 94.5145 139.121 95.2153 139.928 97.021C140.593 98.5105 144.277 103.942 144.635 103.961C144.759 103.967 146.198 102.313 147.832 100.284C150.288 97.2331 150.787 96.4241 150.712 95.6105C150.636 94.7733 150.44 94.5814 149.396 94.323C147.069 93.7465 148.184 93.4789 152.911 93.4789C157.394 93.4789 158.964 93.815 156.579 94.264C154.809 94.5968 153.588 95.7059 149.505 100.689C146.671 104.148 145.685 105.575 145.879 105.938C146.63 107.346 153.624 117.095 154.647 118.161C155.299 118.839 156.316 119.57 156.907 119.784C157.497 119.998 157.981 120.292 157.981 120.436C157.981 120.58 155.258 120.698 151.93 120.698C146.236 120.698 144.284 120.382 147.146 119.923C148.817 119.655 149.321 119.036 148.886 117.786C148.565 116.862 143.392 108.892 143.114 108.892C142.819 108.892 136.448 117.063 136.247 117.7C135.918 118.739 136.599 119.661 137.871 119.9C140.294 120.356 138.82 120.698 134.433 120.698C130.216 120.698 128.732 120.395 130.619 119.921C131.04 119.815 131.775 119.42 132.252 119.043C133.162 118.326 141.551 108.164 141.825 107.447C142.047 106.869 134.973 96.654 133.519 95.4521C132.862 94.909 131.843 94.3741 131.253 94.2633Z" fill="black"/>
<circle cx="158.5" cy="76.5" r="7" stroke="black"/>
<path d="M159.119 77.5488H157.115V81H155.984V72.4688H158.809C159.77 72.4688 160.508 72.6875 161.023 73.125C161.543 73.5625 161.803 74.1992 161.803 75.0352C161.803 75.5664 161.658 76.0293 161.369 76.4238C161.084 76.8184 160.686 77.1133 160.174 77.3086L162.178 80.9297V81H160.971L159.119 77.5488ZM157.115 76.6289H158.844C159.402 76.6289 159.846 76.4844 160.174 76.1953C160.506 75.9062 160.672 75.5195 160.672 75.0352C160.672 74.5078 160.514 74.1035 160.197 73.8223C159.885 73.541 159.432 73.3984 158.838 73.3945H157.115V76.6289Z" fill="black"/>
</svg>
