<svg width="252" height="80" viewBox="0 0 252 80" fill="none" xmlns="http://www.w3.org/2000/svg">
<path fill-rule="evenodd" clip-rule="evenodd" d="M0.200195 40V80H125.878H251.555V40V0H125.878H0.200195V40ZM36.1837 14.9954C39.538 15.3991 42.4939 16.5507 45.0488 18.4493C45.8389 19.0365 47.3359 20.5739 48.1103 21.5934C50.382 24.5846 51.5261 28.735 51.1351 32.5669C50.7509 36.333 49.3048 39.377 46.6419 42.0253C44.1536 44.5 41.1999 45.9744 37.3206 46.6783C36.348 46.8547 35.0897 46.9087 30.7644 46.9592L25.4117 47.0219V56.0149V65.0079H20.344H15.2764V39.937V14.8661H25.1933C31.1871 14.8661 35.5349 14.9173 36.1837 14.9954ZM228.244 25.5102V30.107L232.583 30.1401L236.922 30.1732L236.956 33.9213L236.989 37.6693H232.61H228.232L228.273 45.6378C228.312 52.9124 228.335 53.6666 228.544 54.2992C229.509 57.2212 232.019 58.0573 236.639 56.9953L236.989 56.9148L236.956 60.9926L236.922 65.0705L235.592 65.2855C232.543 65.7785 229.677 65.7072 227.175 65.0759C222.799 63.9722 219.985 61.0151 218.718 56.189C218.443 55.1415 218.436 54.9271 218.394 46.3937L218.351 37.6693H215.886H213.421V33.8898V30.1102H216.018H218.615V25.5118V20.9134H223.43H228.244V25.5102ZM25.4117 30.9222V38.1732H29.7245C34.3653 38.1732 35.272 38.0833 36.6071 37.4901C38.5122 36.6438 40.0426 34.7951 40.4931 32.796C40.699 31.8825 40.664 30.0218 40.4235 29.0952C40.1618 28.0862 39.5068 26.831 38.837 26.0546C38.2281 25.3488 36.9137 24.4622 35.8637 24.0491C35.1176 23.7555 35.014 23.7493 30.2576 23.7106L25.4117 23.6713V30.9222ZM74.3144 28.8528C74.7673 28.9225 75.4087 29.041 75.7396 29.1165L76.3414 29.2534V33.5409V37.8283L75.8663 37.7494C75.6051 37.7061 74.7463 37.6028 73.9579 37.5199C70.0141 37.1053 66.8918 38.6545 65.3197 41.806C64.5611 43.3266 64.5637 43.2806 64.5613 54.6457L64.5592 65.0079H59.5549H54.5506V47.3071V29.6063H59.2382H63.9257L63.9288 31.9685L63.9317 34.3307L64.2266 33.6179C65.3106 30.9972 67.0946 29.5147 69.8802 28.9202C70.8608 28.7109 73.1631 28.6759 74.3144 28.8528ZM98.8291 28.9128C105.651 29.9022 110.884 33.758 113.342 39.6071C115.678 45.1664 115.269 52.0455 112.306 57.0575C110.085 60.8142 106.768 63.4379 102.423 64.874C100.114 65.6373 98.7639 65.8261 95.6618 65.8201C93.1258 65.8152 92.7289 65.7839 91.2588 65.4735C87.4057 64.6597 84.3793 63.0647 81.7838 60.4797C79.3117 58.0176 77.7759 55.1444 76.9492 51.4351C76.7126 50.3743 76.6744 49.8055 76.6708 47.3071C76.667 44.5659 76.686 44.3278 77.0229 42.8976C77.6646 40.1734 78.6767 37.9552 80.2137 35.9055C83.1618 31.9738 87.7793 29.4605 93.2547 28.8074C94.2955 28.6833 97.689 28.7475 98.8291 28.9128ZM140.991 28.9124C142.462 29.1674 144.008 29.744 145.234 30.4942C146.439 31.2314 148.071 32.7189 148.748 33.697C149.014 34.0801 149.247 34.3937 149.266 34.3937C149.286 34.3937 149.501 34.0952 149.744 33.7305C151.223 31.5152 153.372 29.9972 156.22 29.1549C157.761 28.6992 160.566 28.589 162.516 28.9076C168.339 29.8594 172.545 33.4709 174.26 38.9921C175.02 41.438 175.032 41.664 175.033 53.8898L175.034 65.0079H170.033H165.032L164.997 53.7008L164.962 42.3937L164.667 41.5748C163.897 39.4374 162.348 38.0455 160.245 37.6024C156.556 36.8251 153.1 38.9343 152.086 42.5827C151.968 43.0085 151.917 45.8691 151.884 54.0787L151.839 65.0079H146.908H141.978L141.938 53.8898C141.901 43.5346 141.882 42.7242 141.667 42.0787C140.943 39.904 139.495 38.3874 137.581 37.7998C134.316 36.7969 131.093 38.0165 129.635 40.8068C128.768 42.4651 128.791 42.0966 128.791 54.1498V65.0079H123.787H118.783V47.3071V29.6063H123.47H128.158V32.3429V35.0796L128.611 34.1382C129.973 31.3044 132.409 29.5397 135.823 28.9141C137.062 28.6871 139.687 28.6862 140.991 28.9124ZM199.138 29.024C202.574 29.662 205.468 31.1329 207.556 33.3024C209.638 35.4668 210.835 37.968 211.334 41.1968C211.486 42.1789 211.519 44.4226 211.52 53.7008L211.521 65.0079H206.706H201.892V62.7733V60.5388L201.428 61.2249C199.896 63.4859 197.076 65.1116 193.974 65.5211C192.637 65.6976 190.263 65.6093 188.786 65.3281C184.684 64.547 181.605 62.433 180.024 59.312C178.444 56.1911 178.481 52.2642 180.119 49.4182C180.63 48.5305 182.097 46.9827 183.015 46.3627C185.214 44.8779 188.052 43.9255 191.865 43.392C193.266 43.196 197.814 42.9678 200.413 42.9633L201.91 42.9606L201.822 42.2362C201.625 40.6284 201.017 39.364 200.012 38.4728C199.56 38.0718 198.303 37.4532 197.452 37.2132C196.364 36.9061 192.988 36.8375 191.503 37.0923C189.247 37.4796 187.168 38.2506 185.251 39.4114C184.773 39.7005 184.34 39.937 184.287 39.937C184.207 39.937 180.608 33.4772 180.608 33.3329C180.608 33.3061 181.05 33.0026 181.59 32.6586C184.466 30.826 188.093 29.4982 191.82 28.9136C193.347 28.6741 197.599 28.7383 199.138 29.024ZM93.6981 37.3587C88.2647 38.5029 85.3419 44.2392 86.9349 50.6328C87.9614 54.7528 91.4384 57.4488 95.7251 57.4488C99.3446 57.4488 102.326 55.5737 103.837 52.3465C104.616 50.6837 104.784 49.7763 104.782 47.2441C104.78 44.7331 104.633 43.9574 103.838 42.2677C102.887 40.2455 101.62 38.9474 99.7159 38.0445C97.9594 37.2115 95.6482 36.9482 93.6981 37.3587ZM195.431 49.6461C190.672 49.9331 188.716 51.1809 188.716 53.9291C188.716 57.0661 192.41 58.8031 196.698 57.6821C199.069 57.062 200.735 55.4493 201.323 53.204C201.439 52.7618 201.512 51.9073 201.512 50.9972V49.5118L199.263 49.5312C198.026 49.5418 196.302 49.5936 195.431 49.6461Z" fill="#00A5E7"/>
</svg>
