<svg width="548" height="80" viewBox="0 0 548 80" fill="none" xmlns="http://www.w3.org/2000/svg">
<g clip-path="url(#clip0)">
<path d="M1.54251 0.690646C0.895024 1.20863 0.679199 10.8201 0.679199 40.3453C0.679199 75.3381 0.823083 79.3094 1.83028 79.6547C3.26913 80.1151 98.0893 80.1151 99.5281 79.6547C100.535 79.3094 100.679 75.2806 100.679 40C100.679 4.71942 100.535 0.690647 99.5281 0.345323C98.8806 0.172661 76.7943 0 50.3914 0C14.0605 0 2.18999 0.17266 1.54251 0.690646ZM47.4418 32.4604V45.4101L41.9742 52.6043C39.0245 56.6331 35.931 60.0863 35.2116 60.4317C34.4922 60.7194 28.8087 61.0072 22.6216 61.0072C9.24035 61.0072 8.95258 60.8921 12.9094 56.1151C13.7008 55.1367 14.636 53.8705 15.0677 53.2374C15.4993 52.6043 16.2188 51.5684 16.7224 50.9353C17.226 50.3022 18.7368 48.2878 20.1037 46.3885C21.4706 44.5468 23.1972 42.3597 23.8447 41.4964C24.5641 40.6907 25.4274 39.482 25.7871 38.8489C26.1468 38.2158 27.2979 36.7194 28.3051 35.5108C29.3123 34.3022 30.1756 33.2086 30.1756 33.0935C30.1756 32.8633 36.7943 23.9424 39.2404 20.8345C40.1037 19.7986 40.967 19.5683 43.8447 19.5683H47.4418V32.4604ZM62.3339 21.1223C63.0533 22.0432 63.7727 22.8489 63.9886 23.0216C64.2763 23.1942 64.636 23.7122 64.8519 24.1727C65.0677 24.6331 70.967 32.6331 77.9454 41.9568C84.9238 51.2806 90.6073 59.2806 90.4634 59.7986C90.2476 60.6043 88.6648 60.7194 78.1612 60.7194H66.003L64.4922 58.9928C62.8375 57.2662 61.7583 55.8273 60.3914 53.813C59.9598 53.1799 59.0245 51.8561 58.2332 50.9353C53.8447 45.5252 53.9166 45.8705 53.9166 32.6331C53.9166 25.8993 54.1324 20.1439 54.4202 19.9712C54.636 19.741 56.2907 19.5683 57.9454 19.5683C60.6073 19.5683 61.2547 19.7986 62.3339 21.1223ZM190.967 19.5683C184.924 20.3741 178.593 23.1942 175.355 26.5324C171.543 30.6187 170.248 33.8417 170.248 39.7122C170.176 44.3741 170.463 45.6403 172.046 48.3453C176.722 56.6331 185.14 60.6619 197.442 60.7194C209.24 60.7194 218.233 56.518 222.478 48.9784C224.636 45.1223 225.068 36.2014 223.269 32.2302C221.399 28.0863 216.075 23.482 210.535 21.3525C205.571 19.4532 197.442 18.705 190.967 19.5683ZM204.78 33.6691C206.938 35.6835 207.154 36.2014 207.154 39.8273C207.154 43.741 207.154 43.7986 203.917 46.3309C201.111 48.5755 200.32 48.9209 197.658 48.9209C194.276 48.9209 191.614 47.7698 189.096 45.2374C187.802 43.9712 187.442 42.8201 187.442 40C187.37 36.9496 187.658 36.1439 189.456 34.3022C192.046 31.5971 193.629 31.0216 198.449 31.3094C201.974 31.482 202.622 31.7122 204.78 33.6691ZM248.161 19.5683C241.039 20.5468 233.557 24.7482 230.607 29.4101C229.888 30.446 228.737 33.2662 227.945 35.5683C226.579 39.7122 226.579 39.8273 227.945 44.259C228.665 46.7338 229.888 49.4964 230.607 50.4173C233.197 53.813 237.802 57.0935 242.406 58.8777C246.507 60.4317 247.802 60.6619 253.557 60.6619C261.327 60.7194 267.01 59.4532 270.751 56.8058L273.341 54.964L270.32 52.1439C262.981 45.295 263.557 45.6978 262.046 46.6187C258.161 49.1511 254.852 49.554 250.895 48C247.226 46.6187 245.715 44.5468 245.427 40.4604C245.14 37.5827 245.427 36.5468 246.65 34.9353C249.528 31.1942 255.499 30.0432 260.679 32.2878C262.19 32.9209 263.629 33.3813 263.917 33.2662C264.708 33.036 270.823 26.9353 271.902 25.3813C272.909 23.8273 272.622 23.5396 268.089 21.5827C262.981 19.4532 255.068 18.6475 248.161 19.5683ZM419.744 19.5683C412.55 20.4892 404.348 25.2662 401.255 30.3309C398.089 35.5108 398.305 44.6619 401.83 49.8993C406.65 57.1511 414.636 60.7194 426.219 60.7194C438.161 60.7194 446.65 56.7482 451.255 49.036C452.622 46.7338 452.838 45.3525 452.838 39.7122C452.838 34.1295 452.622 32.6907 451.255 30.5036C447.586 24.2302 438.881 19.8561 429.097 19.3381C425.931 19.223 421.758 19.2806 419.744 19.5683ZM430.391 31.5971C431.399 31.9424 433.053 33.0935 434.133 34.187C435.715 35.8561 436.075 36.8345 436.147 39.5971C436.147 43.5684 434.564 46.1007 431.039 47.7698C423.989 51.1079 416.363 46.964 416.219 39.7122C416.147 36.9496 416.507 36.0863 418.233 34.3022C419.312 33.0935 420.967 31.9424 421.83 31.6547C423.917 30.964 428.233 30.964 430.391 31.5971ZM477.226 19.5683C472.19 20.1439 465.068 23.3094 462.334 26.1295C459.097 29.4101 458.233 30.7914 457.082 34.3597C455.787 38.2734 455.787 41.1511 457.082 45.0648C460.248 54.6763 468.665 59.9712 482.118 60.8345C486.722 61.1223 488.449 60.9496 492.694 59.8561C504.564 56.7482 511.183 49.3237 511.039 39.4245C510.823 25.4388 496.866 17.2662 477.226 19.5683ZM490.679 33.2662C495.427 37.5252 494.996 43.2806 489.672 46.9065C485.284 49.8993 480.463 49.6115 476.003 45.9856C472.91 43.4532 472.909 36.8345 476.075 33.8417C478.521 31.5396 480.176 31.0791 484.78 31.3094C488.089 31.4245 489.025 31.7698 490.679 33.2662ZM126.363 20.5468C126.075 20.7194 125.859 29.4101 125.859 39.7122C125.859 55.1942 126.075 58.705 126.866 59.223C127.514 59.6835 130.248 59.8561 134.564 59.741L141.327 59.5683L141.686 53.4101C142.046 47.4245 142.55 45.8705 143.773 46.964C144.061 47.2518 146.075 50.0719 148.089 53.2374C150.176 56.4029 152.262 59.1655 152.694 59.3957C153.197 59.6259 157.226 59.8561 161.686 59.8561C168.305 59.8561 169.744 59.6835 169.744 58.9928C169.744 58.0719 163.341 49.3237 162.406 49.036C162.118 48.9209 161.83 48.518 161.83 48.0576C161.83 47.6547 161.327 47.0216 160.751 46.6187C158.881 45.3525 159.528 43.4532 162.478 41.554C164.42 40.3453 165.571 38.9065 166.435 36.8921C167.873 33.3237 167.873 31.9424 166.507 28.7194C164.636 24.5755 161.686 22.5036 155.499 20.9496C151.974 20.1439 127.298 19.741 126.363 20.5468ZM149.456 30.8489C151.471 31.9424 151.543 34.5324 149.672 35.9137C148.737 36.6043 147.37 36.8345 145.212 36.7194C142.19 36.5468 142.046 36.4317 141.83 34.5899C141.399 30.964 142.118 29.9281 145.14 29.9281C146.65 29.9281 148.593 30.3309 149.456 30.8489ZM276.579 20.8921C276.363 21.2374 276.291 30.1583 276.363 40.5755L276.579 59.5683H290.967L291.183 52.9496C291.255 49.3237 291.543 45.9856 291.686 45.5252C292.334 44.259 294.564 46.2734 299.744 52.6619C302.334 55.8273 304.924 58.7626 305.571 59.1655C306.363 59.6259 309.528 59.8561 315.571 59.8561C325.14 59.8561 325.715 59.6259 323.125 56.9209C322.334 56.1727 320.535 54.1007 319.025 52.3741C317.514 50.6475 316.003 48.9784 315.643 48.6331C314.708 47.6547 308.953 41.2662 307.586 39.5971L306.363 38.0432L314.492 30.2158C318.953 25.8993 323.053 21.8705 323.629 21.2374C324.564 20.2014 324.348 20.1439 315.212 20.1439H305.859L299.816 26.5899C291.758 35.2806 291.327 35.2806 291.327 26.8201V20.1439H284.132C278.953 20.1439 276.794 20.3741 276.579 20.8921ZM326.363 23.1367C326.938 24.8058 327.873 27.5683 328.377 29.2374C329.6 32.7482 331.183 37.295 332.622 41.6115C334.348 46.5612 335.931 51.3381 336.938 54.3885C338.665 59.9137 338.593 59.8561 347.01 59.8561C352.118 59.8561 354.708 59.6259 355.14 59.1079C355.787 58.4748 358.017 51.8561 360.032 44.7194C361.039 41.2662 363.053 38.1583 363.845 38.8489C364.133 39.0791 364.708 40.6907 365.212 42.4748C365.643 44.259 366.579 47.4245 367.154 49.4964C367.802 51.5683 368.665 54.3885 369.025 55.8273C369.456 57.2662 370.32 58.7626 370.967 59.1079C372.622 60.0863 384.924 60.0863 386.435 59.1079C387.082 58.7626 387.945 57.2662 388.377 55.8273C389.24 52.7194 390.823 48.0576 392.406 43.741C393.053 42.0144 394.061 39.1942 394.564 37.5252C396.363 32.2878 397.658 28.6043 398.809 25.3237C400.751 19.9137 401.039 20.1439 392.406 20.1439H384.852L384.061 21.6978C383.269 23.3094 382.118 27.8561 380.248 36.4317C379.744 38.9065 379.097 41.036 378.881 41.2086C377.874 42.0144 376.003 36.9496 373.269 26.1871C372.909 24.5755 372.19 22.6187 371.758 21.6978L371.039 20.1439H354.636L354.204 21.6978C353.989 22.6187 353.485 24.0576 353.125 25.036C352.838 25.9568 352.19 28.3165 351.758 30.2158C350.032 38.1583 349.096 41.1511 348.521 41.036C347.802 40.9209 345.859 34.4748 342.694 21.4101C342.406 20.2014 342.118 20.1439 333.845 20.1439H325.284L326.363 23.1367ZM515.499 20.6619C515.212 20.9496 514.996 29.6978 514.924 40C514.852 55.5971 514.996 58.8777 515.859 59.3381C516.435 59.6259 523.773 59.8561 532.118 59.8561H547.442L547.802 58.5324C548.017 57.8417 548.161 55.4245 548.017 53.2374L547.802 49.2086L540.104 49.036C534.924 48.9209 532.19 48.6331 531.686 48.1151C531.183 47.6547 530.823 42.4748 530.751 33.8993L530.535 20.4317L523.197 20.259C519.097 20.2014 515.715 20.3165 515.499 20.6619ZM542.622 21.813C542.981 24.7482 547.514 24.9784 547.37 22.0432C547.37 20.4892 547.298 20.4317 546.579 21.6978C546.147 22.446 545.427 23.0216 544.924 23.0216C544.42 23.0216 543.701 22.446 543.269 21.6978L542.406 20.4317L542.622 21.813Z" fill="#CF3838"/>
</g>
<defs>
<clipPath id="clip0">
<rect width="547" height="80" fill="white" transform="translate(0.679199)"/>
</clipPath>
</defs>
</svg>
